<svg xmlns="http://www.w3.org/2000/svg" width="330" height="73" xml:space="preserve"><path style="stroke:none;stroke-width:1;stroke-dasharray:none;stroke-linecap:butt;stroke-dashoffset:0;stroke-linejoin:miter;stroke-miterlimit:4;fill:#018837;fill-rule:nonzero;opacity:1" vector-effect="non-scaling-stroke" transform="matrix(.97 0 0 .97 -26.272 -39.685)" d="M68.66 48.58H49.89c-1.91 0-3.67.76-5 2.1l-13.3 13.24-4.53-4.48 13.29-13.29c2.57-2.57 5.91-3.95 9.53-3.95h18.77c3.62 0 6.96 1.38 9.53 3.95l13.29 13.29-4.53 4.48-13.27-13.25c-1.34-1.33-3.1-2.09-5.01-2.09zm-23.77 57.74c1.38 1.33 3.1 2.1 5 2.1h18.77c1.91 0 3.62-.76 5-2.1l13.29-13.25 4.53 4.48-13.29 13.29c-2.57 2.57-5.91 3.95-9.53 3.95H49.89c-3.62 0-6.96-1.38-9.53-3.95L27.07 97.55l4.53-4.48 13.29 13.25"/><path style="stroke:none;stroke-width:1;stroke-dasharray:none;stroke-linecap:butt;stroke-dashoffset:0;stroke-linejoin:miter;stroke-miterlimit:4;fill:#ff0001;fill-rule:nonzero;opacity:1" vector-effect="non-scaling-stroke" transform="matrix(.97 0 0 .97 -26.276 -39.68)" d="M49.55 61.37h4.86v8.34h10.82c3.1 0 5.48 2.38 5.48 5.48v16.15h-4.86V75.19c0-.43-.29-.71-.71-.71H54.4v16.87h-4.86V61.37z"/><path style="stroke:none;stroke-width:1;stroke-dasharray:none;stroke-linecap:butt;stroke-dashoffset:0;stroke-linejoin:miter;stroke-miterlimit:4;fill:#018837;fill-rule:nonzero;opacity:1" vector-effect="non-scaling-stroke" transform="matrix(.97 0 0 .97 -26.233 -39.676)" d="M120.84 51.62h6.76v11.6h15.05c4.31 0 7.62 3.31 7.62 7.62v22.48h-6.76V70.85c0-.6-.4-.99-1-.99H127.6v23.47h-6.76V51.62z"/><path style="stroke:none;stroke-width:1;stroke-dasharray:none;stroke-linecap:butt;stroke-dashoffset:0;stroke-linejoin:miter;stroke-miterlimit:4;fill:#018837;fill-rule:nonzero;opacity:1" vector-effect="non-scaling-stroke" transform="matrix(.97 0 0 .97 -26.212 -39.681)" d="M156.24 85.7v-3.31c0-4.31 3.31-7.62 7.62-7.62h15.05v-3.91c0-.6-.4-.99-.99-.99h-20.35v-6.63h20.42c4.31 0 7.62 3.31 7.62 7.62v22.48h-21.75c-4.3-.01-7.62-3.33-7.62-7.64zm7.76 1h14.85v-5.44H164c-.6 0-.99.4-.99.99v3.45c0 .6.39 1 .99 1z"/><path style="stroke:none;stroke-width:1;stroke-dasharray:none;stroke-linecap:butt;stroke-dashoffset:0;stroke-linejoin:miter;stroke-miterlimit:4;fill:#018837;fill-rule:nonzero;opacity:1" vector-effect="non-scaling-stroke" transform="matrix(.97 0 0 .97 -26.181 -39.675)" d="M193.57 97.83h20.35c.6 0 .99-.4.99-.99v-3.51h-15.05c-4.31 0-7.62-3.31-7.62-7.62V70.85c0-4.31 3.31-7.62 7.62-7.62h21.81v33.61c0 4.31-3.31 7.62-7.62 7.62h-20.49v-6.63zM200 86.7h14.92V69.86H200c-.6 0-.99.4-.99.99V85.7c0 .6.39 1 .99 1z"/><path style="stroke:none;stroke-width:1;stroke-dasharray:none;stroke-linecap:butt;stroke-dashoffset:0;stroke-linejoin:miter;stroke-miterlimit:4;fill:#018837;fill-rule:nonzero;opacity:1" vector-effect="non-scaling-stroke" transform="matrix(.97 0 0 .97 -26.175 -39.682)" d="M228.44 85.7V70.85c0-4.31 3.31-7.62 7.62-7.62h14.19c4.31 0 7.62 3.31 7.62 7.62v11.2H235.2v3.65c0 .6.4.99.99.99h21.68v6.63h-21.81c-4.3.01-7.62-3.31-7.62-7.62zm22.68-10.14v-4.71c0-.6-.4-.99-.99-.99H236.2c-.6 0-.99.4-.99.99v4.71h15.91z"/><path style="stroke:none;stroke-width:1;stroke-dasharray:none;stroke-linecap:butt;stroke-dashoffset:0;stroke-linejoin:miter;stroke-miterlimit:4;fill:#018837;fill-rule:nonzero;opacity:1" vector-effect="non-scaling-stroke" transform="matrix(.97 0 0 .97 -26.153 -39.686)" d="M264.51 85.7V70.85c0-4.31 3.31-7.62 7.62-7.62h15.05v-11.6h6.76v41.7h-21.81c-4.31 0-7.62-3.32-7.62-7.63zm7.76 1h14.92V69.86h-14.92c-.6 0-.99.4-.99.99V85.7c-.01.6.39 1 .99 1z"/><path style="stroke:none;stroke-width:1;stroke-dasharray:none;stroke-linecap:butt;stroke-dashoffset:0;stroke-linejoin:miter;stroke-miterlimit:4;fill:#018837;fill-rule:nonzero;opacity:1" vector-effect="non-scaling-stroke" transform="matrix(.97 0 0 .97 -26.117 -39.682)" d="M300.71 85.7V70.85c0-4.31 3.31-7.62 7.62-7.62h14.19c4.31 0 7.62 3.31 7.62 7.62V85.7c0 4.31-3.31 7.62-7.62 7.62h-14.19c-4.31.01-7.62-3.31-7.62-7.62zm7.76 1h13.92c.53 0 .99-.4.99-.99V70.85c0-.6-.4-.99-.99-.99h-13.92c-.6 0-.99.4-.99.99V85.7c-.01.6.39 1 .99 1z"/><path style="stroke:none;stroke-width:1;stroke-dasharray:none;stroke-linecap:butt;stroke-dashoffset:0;stroke-linejoin:miter;stroke-miterlimit:4;fill:#018837;fill-rule:nonzero;opacity:1" vector-effect="non-scaling-stroke" transform="matrix(.97 0 0 .97 -26.113 -39.682)" d="M336.51 85.7V70.85c0-4.31 3.31-7.62 7.62-7.62h14.19c4.31 0 7.62 3.31 7.62 7.62V85.7c0 4.31-3.31 7.62-7.62 7.62h-14.19c-4.3.01-7.62-3.31-7.62-7.62zm7.76 1h13.92c.53 0 .99-.4.99-.99V70.85c0-.6-.4-.99-.99-.99h-13.92c-.6 0-.99.4-.99.99V85.7c-.01.6.39 1 .99 1z"/></svg>